# xmcd CD database file
#
# Track frame offsets:
#	150
#	15321
#	25542
#	34307
#	45217
#	54916
#	66079
#	77640
#	101027
#	111613
#	123035
#	141576
#	162249
#	189132
#	202986
#	212275
#
# Disc length: 3063 seconds
#
# Revision: 0
# Processed by: cddbd v1.5.2PL0 Copyright (c) Steve Scherf et al.
# Submitted via: CDex 1.51
#
DISCID=c60bf510
DTITLE=Various Artist - Merry Jazz Christmas!
DYEAR=2012
DGENRE=Jazz
TTITLE0=01 Jingle Bells - Duke Ellington and His Orchestra
TTITLE1=02 Winter Wonderland - Tony Bennett
TTITLE2=03 Deck The Halls - Vic Damone
TTITLE3=04 I'm Aittle Christmas Cracker - The Bouncing Checks
TTITLE4=05 Blue Christmas - Elvis Presley
TTITLE5=06 I'll Be Home For Christmas - Doris Day
TTITLE6=07 Little Drummer Boy - Johnny Cash
TTITLE7=08 Oh Happy Day - The Edwin Hawkins Singers
TTITLE8=09 Good King Wenceslas - The Ames Brothers
TTITLE9=10 Here Comes Santa Claus - Gene Autry
TTITLE10=11 Remember (Christmas) - Harry Nilsson
TTITLE11=12 God Rest Ye, Merry Gentlemen - Kenny G
TTITLE12=13 It Came Upon A Midnight Clear - The Manhattan Transfer
TTITLE13=14 I Heard The Bells On Christmas Day - Harry Belafonte
TTITLE14=15 We Wish You A Merry Christmas - Patti Page 
TTITLE15=16 Away In A Manger - Julie Andrews
EXTD=YEAR: 2012
EXTT0=
EXTT1=
EXTT2=
EXTT3=
EXTT4=
EXTT5=
EXTT6=
EXTT7=
EXTT8=
EXTT9=
EXTT10=
EXTT11=
EXTT12=
EXTT13=
EXTT14=
EXTT15=
PLAYORDER=
